# Blender 3.5.0
# www.blender.org
mtllib item.mtl
o ICOçƒ
v 0.000000 -1.000000 0.000000
v 0.723607 -0.447220 0.525725
v -0.276388 -0.447220 0.850649
v -0.894426 -0.447216 0.000000
v -0.276388 -0.447220 -0.850649
v 0.723607 -0.447220 -0.525725
v 0.276388 0.447220 0.850649
v -0.723607 0.447220 0.525725
v -0.723607 0.447220 -0.525725
v 0.276388 0.447220 -0.850649
v 0.894426 0.447216 0.000000
v 0.000000 1.000000 0.000000
v -0.162456 -0.850654 0.499995
v 0.425323 -0.850654 0.309011
v 0.262869 -0.525738 0.809012
v 0.850648 -0.525736 0.000000
v 0.425323 -0.850654 -0.309011
v -0.525730 -0.850652 0.000000
v -0.688189 -0.525736 0.499997
v -0.162456 -0.850654 -0.499995
v -0.688189 -0.525736 -0.499997
v 0.262869 -0.525738 -0.809012
v 0.951058 0.000000 0.309013
v 0.951058 0.000000 -0.309013
v 0.000000 0.000000 1.000000
v 0.587786 0.000000 0.809017
v -0.951058 0.000000 0.309013
v -0.587786 0.000000 0.809017
v -0.587786 0.000000 -0.809017
v -0.951058 0.000000 -0.309013
v 0.587786 0.000000 -0.809017
v 0.000000 0.000000 -1.000000
v 0.688189 0.525736 0.499997
v -0.262869 0.525738 0.809012
v -0.850648 0.525736 0.000000
v -0.262869 0.525738 -0.809012
v 0.688189 0.525736 -0.499997
v 0.162456 0.850654 0.499995
v 0.525730 0.850652 0.000000
v -0.425323 0.850654 0.309011
v -0.425323 0.850654 -0.309011
v 0.162456 0.850654 -0.499995
vn 0.1024 -0.9435 0.3151
vn 0.7002 -0.6617 0.2680
vn -0.2680 -0.9435 0.1947
vn -0.2680 -0.9435 -0.1947
vn 0.1024 -0.9435 -0.3151
vn 0.9050 -0.3304 0.2680
vn 0.0247 -0.3304 0.9435
vn -0.8897 -0.3304 0.3151
vn -0.5746 -0.3304 -0.7488
vn 0.5346 -0.3304 -0.7779
vn 0.8026 -0.1256 0.5831
vn -0.3066 -0.1256 0.9435
vn -0.9921 -0.1256 -0.0000
vn -0.3066 -0.1256 -0.9435
vn 0.8026 -0.1256 -0.5831
vn 0.4089 0.6617 0.6284
vn -0.4713 0.6617 0.5831
vn -0.7002 0.6617 -0.2680
vn 0.0385 0.6617 -0.7488
vn 0.7240 0.6617 -0.1947
vn 0.2680 0.9435 -0.1947
vn 0.4911 0.7947 -0.3568
vn 0.4089 0.6617 -0.6284
vn -0.1024 0.9435 -0.3151
vn -0.1876 0.7947 -0.5773
vn -0.4713 0.6617 -0.5831
vn -0.3313 0.9435 -0.0000
vn -0.6071 0.7947 -0.0000
vn -0.7002 0.6617 0.2680
vn -0.1024 0.9435 0.3151
vn -0.1876 0.7947 0.5773
vn 0.0385 0.6617 0.7488
vn 0.2680 0.9435 0.1947
vn 0.4911 0.7947 0.3568
vn 0.7240 0.6617 0.1947
vn 0.8897 0.3304 -0.3151
vn 0.7947 0.1876 -0.5773
vn 0.5746 0.3304 -0.7488
vn -0.0247 0.3304 -0.9435
vn -0.3035 0.1876 -0.9342
vn -0.5346 0.3304 -0.7779
vn -0.9050 0.3304 -0.2680
vn -0.9822 0.1876 -0.0000
vn -0.9050 0.3304 0.2680
vn -0.5346 0.3304 0.7779
vn -0.3035 0.1876 0.9342
vn -0.0247 0.3304 0.9435
vn 0.5746 0.3304 0.7488
vn 0.7947 0.1876 0.5773
vn 0.8897 0.3304 0.3151
vn 0.3066 0.1256 -0.9435
vn 0.3035 -0.1876 -0.9342
vn 0.0247 -0.3304 -0.9435
vn -0.8026 0.1256 -0.5831
vn -0.7947 -0.1876 -0.5773
vn -0.8897 -0.3304 -0.3151
vn -0.8026 0.1256 0.5831
vn -0.7947 -0.1876 0.5773
vn -0.5746 -0.3304 0.7488
vn 0.3066 0.1256 0.9435
vn 0.3035 -0.1876 0.9342
vn 0.5346 -0.3304 0.7779
vn 0.9921 0.1256 -0.0000
vn 0.9822 -0.1876 -0.0000
vn 0.9050 -0.3304 -0.2680
vn 0.4713 -0.6617 -0.5831
vn 0.1876 -0.7947 -0.5773
vn -0.0385 -0.6617 -0.7488
vn -0.4089 -0.6617 -0.6284
vn -0.4911 -0.7947 -0.3568
vn -0.7240 -0.6617 -0.1947
vn -0.7240 -0.6617 0.1947
vn -0.4911 -0.7947 0.3568
vn -0.4089 -0.6617 0.6284
vn 0.7002 -0.6617 -0.2680
vn 0.6071 -0.7947 -0.0000
vn 0.3313 -0.9435 -0.0000
vn -0.0385 -0.6617 0.7488
vn 0.1876 -0.7947 0.5773
vn 0.4713 -0.6617 0.5831
vt 0.239732 0.499769
vt 0.114635 0.078619
vt 0.018233 0.499769
vt 0.909932 0.116899
vt 0.361596 0.190691
vt 0.688573 0.124811
vt 0.555706 0.302761
vt 0.853963 0.695352
vt 0.131636 0.693100
vt 0.114634 0.302761
vt 0.463022 0.403635
vt 0.808809 0.313971
vt 0.349619 0.596966
vt 0.555705 0.078619
vt 0.752839 0.498280
vt 0.974199 0.506192
vt 0.308744 0.190691
vt 0.571118 0.596967
vt 0.866467 0.018233
vt 0.199820 0.399614
vt 0.124297 0.491113
vt 0.018234 0.124815
vt 0.981767 0.071237
vt 0.069626 0.399614
vt 0.202842 0.018233
vt 0.060759 0.604750
vt 0.190952 0.604749
vt 0.313153 0.456702
vt 0.353403 0.297275
vt 0.736356 0.022884
vt 0.794259 0.112371
vt 0.307672 0.583483
vt 0.467497 0.363148
vt 0.452970 0.256564
vt 0.741392 0.695352
vt 0.244135 0.697121
vt 0.590570 0.363148
vt 0.217370 0.124817
vt 0.927951 0.609588
vt 0.316937 0.084107
vt 0.033475 0.697121
vt 0.980819 0.198135
vt 0.018233 0.256562
vt 0.103274 0.190690
vt 0.353403 0.084107
vt 0.364862 0.399614
vt 0.734821 0.228207
vt 0.864933 0.223557
vt 0.567066 0.190690
vt 0.452970 0.124817
vt 0.797839 0.604938
vt 0.681953 0.579516
vt 0.652107 0.256562
vt 0.217370 0.256564
vt 0.575521 0.399615
vt 0.921380 0.313971
vt 0.079770 0.363148
vt 0.467498 0.018233
vt 0.392145 0.491985
vt 0.401011 0.697121
vt 0.681005 0.452618
vt 0.652106 0.124815
vt 0.868513 0.493752
vt 0.639058 0.513252
vt 0.202843 0.363148
vt 0.926416 0.404265
vt 0.644539 0.640033
vt 0.316937 0.297275
vt 0.522339 0.491986
vt 0.455683 0.605622
vt 0.796305 0.399614
vt 0.531205 0.697121
s 0
usemtl Material.001
f 1/1/1 14/21/1 13/20/1
f 2/3/2 14/21/2 16/26/2
f 1/1/3 13/20/3 18/28/3
f 1/1/4 18/28/4 20/32/4
f 1/1/5 20/32/5 17/27/5
f 2/2/6 16/25/6 23/38/6
f 3/4/7 15/23/7 25/42/7
f 4/6/8 19/31/8 27/47/8
f 5/7/9 21/34/9 29/49/9
f 6/8/10 22/35/10 31/51/10
f 2/2/11 23/38/11 26/44/11
f 3/4/12 25/42/12 28/48/12
f 4/5/13 27/45/13 30/50/13
f 5/7/14 29/49/14 32/53/14
f 6/8/15 31/51/15 24/39/15
f 7/10/16 33/54/16 38/65/16
f 8/11/17 34/55/17 40/69/17
f 9/13/18 35/59/18 41/70/18
f 10/15/19 36/61/19 42/71/19
f 11/16/20 37/63/20 39/66/20
f 39/67/21 42/72/21 12/18/21
f 39/66/22 37/63/22 42/71/22
f 37/63/23 10/15/23 42/71/23
f 42/72/24 41/70/24 12/18/24
f 42/72/25 36/60/25 41/70/25
f 36/60/26 9/13/26 41/70/26
f 41/70/27 40/69/27 12/18/27
f 41/70/28 35/59/28 40/69/28
f 35/59/29 8/11/29 40/69/29
f 40/69/30 38/64/30 12/18/30
f 40/69/31 34/55/31 38/64/31
f 34/57/32 7/10/32 38/65/32
f 38/64/33 39/67/33 12/18/33
f 38/65/34 33/54/34 39/68/34
f 33/54/35 11/17/35 39/68/35
f 24/39/36 37/63/36 11/16/36
f 24/39/37 31/51/37 37/63/37
f 31/51/38 10/15/38 37/63/38
f 32/52/39 36/61/39 10/15/39
f 32/53/40 29/49/40 36/62/40
f 29/49/41 9/14/41 36/62/41
f 30/50/42 35/58/42 9/14/42
f 30/50/43 27/45/43 35/58/43
f 27/46/44 8/11/44 35/59/44
f 28/48/45 34/56/45 8/12/45
f 28/48/46 25/42/46 34/56/46
f 25/43/47 7/10/47 34/57/47
f 26/44/48 33/54/48 7/10/48
f 26/44/49 23/38/49 33/54/49
f 23/38/50 11/17/50 33/54/50
f 31/51/51 32/52/51 10/15/51
f 31/51/52 22/35/52 32/52/52
f 22/37/53 5/7/53 32/53/53
f 29/49/54 30/50/54 9/14/54
f 29/49/55 21/34/55 30/50/55
f 21/34/56 4/5/56 30/50/56
f 27/47/57 28/48/57 8/12/57
f 27/47/58 19/31/58 28/48/58
f 19/31/59 3/4/59 28/48/59
f 25/43/60 26/44/60 7/10/60
f 25/43/61 15/22/61 26/44/61
f 15/22/62 2/2/62 26/44/62
f 23/38/63 24/40/63 11/17/63
f 23/38/64 16/25/64 24/40/64
f 16/26/65 6/9/65 24/41/65
f 17/27/66 22/36/66 6/9/66
f 17/27/67 20/32/67 22/36/67
f 20/33/68 5/7/68 22/37/68
f 20/33/69 21/34/69 5/7/69
f 20/33/70 18/29/70 21/34/70
f 18/29/71 4/5/71 21/34/71
f 18/30/72 19/31/72 4/6/72
f 18/30/73 13/19/73 19/31/73
f 13/19/74 3/4/74 19/31/74
f 16/26/75 17/27/75 6/9/75
f 16/26/76 14/21/76 17/27/76
f 14/21/77 1/1/77 17/27/77
f 13/19/78 15/23/78 3/4/78
f 13/20/79 14/21/79 15/24/79
f 14/21/80 2/3/80 15/24/80
